<svg xmlns="http://www.w3.org/2000/svg" viewBox="0 0 716.96 716.96"><defs><style>.cls-1{fill:#e6463a;}.cls-2{fill:#fff;}.cls-3{fill:#414a4f;}</style></defs><title>lisiclogo</title><g id="Background"><rect class="cls-1" width="716.96" height="716.96" rx="70.07" ry="70.07"/></g><g id="Top_Bar" data-name="Top Bar"><rect class="cls-2" x="246.76" y="182.72" width="225" height="70" rx="10.08" ry="10.08"/></g><g id="Short_J" data-name="Short J"><path class="cls-2" d="M182.34,394.46h49.91a10.07,10.07,0,0,1,10.07,10.07V529.46a0,0,0,0,1,0,0h-60a10,10,0,0,1-10-10V404.48a10,10,0,0,1,10-10Z"/><g id="Middle_JL" data-name="Middle JL"><g id="Bottom_L" data-name="Bottom L"><path class="cls-3" d="M362.22,459.46h180a10,10,0,0,1,10,10v49.82a10.13,10.13,0,0,1-10.13,10.13H372.39a10.17,10.17,0,0,1-10.17-10.17V459.46a0,0,0,0,1,0,0Z"/><path class="cls-2" d="M192.31,459.46h162a0,0,0,0,1,0,0v70a0,0,0,0,1,0,0H192.32a20,20,0,0,1-20-20v-30A20,20,0,0,1,192.31,459.46Z"/></g><path class="cls-3" d="M359.26,252.72h85a0,0,0,0,1,0,0V529.46a0,0,0,0,1,0,0H362.14a2.88,2.88,0,0,1-2.88-2.88V252.72A0,0,0,0,1,359.26,252.72Z"/><path class="cls-2" d="M324.26,248.59h70a0,0,0,0,1,0,0V519.48a10,10,0,0,1-10,10h-50a10,10,0,0,1-10-10V248.59a0,0,0,0,1,0,0Z"/></g></g></svg>