<svg xmlns="http://www.w3.org/2000/svg" viewBox="0 0 716.96 716.96"><defs><style>.cls-1{fill:#e6463a;}.cls-2{fill:#fff;}.cls-3{fill:#414a4f;}</style></defs><title>lisiclogo</title><g id="Background"><rect class="cls-1" width="716.96" height="716.96" rx="149.96" ry="149.96"/></g><g id="Top_Bar" data-name="Top Bar"><rect class="cls-2" x="244.65" y="192.72" width="225" height="50" rx="10.08" ry="10.08"/></g><g id="Short_J" data-name="Short J"><path class="cls-2" d="M181,383.59h29.91A10.07,10.07,0,0,1,221,393.66V518.59a0,0,0,0,1,0,0H181a10,10,0,0,1-10-10V393.61A10,10,0,0,1,181,383.59Z"/><g id="Middle_JL" data-name="Middle JL"><g id="Bottom_L" data-name="Bottom L"><path class="cls-3" d="M367.22,478.59h170a10,10,0,0,1,10,10v19.82a10.13,10.13,0,0,1-10.13,10.13H377.39a10.17,10.17,0,0,1-10.17-10.17V478.59A0,0,0,0,1,367.22,478.59Z"/><path class="cls-2" d="M197.31,468.59h162a0,0,0,0,1,0,0v50a0,0,0,0,1,0,0H197.32a20,20,0,0,1-20-20v-10A20,20,0,0,1,197.31,468.59Z"/></g><path class="cls-3" d="M358.18,242.72h65a0,0,0,0,1,0,0V518.59a0,0,0,0,1,0,0H361.07a2.88,2.88,0,0,1-2.88-2.88v-273A0,0,0,0,1,358.18,242.72Z"/><path class="cls-2" d="M334.72,237.72h50a0,0,0,0,1,0,0V508.61a10,10,0,0,1-10,10h-30a10,10,0,0,1-10-10V237.72A0,0,0,0,1,334.72,237.72Z"/></g></g></svg>