<svg xmlns="http://www.w3.org/2000/svg" viewBox="0 0 716.96 716.96"><defs><style>.cls-1{fill:#e6463a;}.cls-2{fill:#fff;}.cls-3{fill:#414a4f;}</style></defs><title>lisiclogo</title><g id="Background"><rect class="cls-1" width="716.96" height="716.96" rx="149.96" ry="149.96"/></g><g id="Top_Bar" data-name="Top Bar"><rect class="cls-2" x="207.15" y="197.72" width="300" height="40" rx="20" ry="20"/></g><g id="Short_J" data-name="Short J"><path class="cls-2" d="M196,383.59h0a20,20,0,0,1,20,20v115a0,0,0,0,1,0,0H196a20,20,0,0,1-20-20v-95A20,20,0,0,1,196,383.59Z"/></g><g id="Middle_JL" data-name="Middle JL"><g id="Bottom_L" data-name="Bottom L"><path class="cls-3" d="M367.22,478.59h170a10,10,0,0,1,10,10v19.82a10.13,10.13,0,0,1-10.13,10.13H377.39a10.17,10.17,0,0,1-10.17-10.17V478.59A0,0,0,0,1,367.22,478.59Z"/><path class="cls-2" d="M197.31,478.59h162a0,0,0,0,1,0,0v40a0,0,0,0,1,0,0H197.32a20,20,0,0,1-20-20v0A20,20,0,0,1,197.31,478.59Z"/></g><path class="cls-3" d="M375.68,237.72h30a0,0,0,0,1,0,0V518.59a0,0,0,0,1,0,0H378.57a2.88,2.88,0,0,1-2.88-2.88v-278A0,0,0,0,1,375.68,237.72Z"/><path class="cls-2" d="M339.72,237.72h40a0,0,0,0,1,0,0V498.6a20,20,0,0,1-20,20h0a20,20,0,0,1-20-20V237.72A0,0,0,0,1,339.72,237.72Z"/></g></svg>