<svg xmlns="http://www.w3.org/2000/svg" viewBox="0 0 716.96 716.96"><defs><style>.cls-1{fill:#e6463a;}.cls-2{fill:#fff;}.cls-3{fill:#414a4f;}</style></defs><title>logo</title><g id="Background"><rect class="cls-1" width="716.96" height="716.96" rx="70.07" ry="70.07"/></g><g id="Short_J" data-name="Short J"><path class="cls-2" d="M381.27,692.62c-39.1,0-74.75-15.52-92.57-29.9-5.75-4.6-7.48-11.5-3.45-18.4l13.22-21.85c4.6-7.47,11.5-9.2,18.4-5.17,22.43,13.8,42.55,20.7,64.4,20.7,27,0,42-21.28,42-41.4V365.45c0-4-2.3-6.32-6.33-6.32H369.2c-8.05,0-12.65-4.6-12.65-12.65V320c0-8,4.6-12.65,12.65-12.65h90.27c16.1,0,25.3,9.2,25.3,25.3V596.6C484.77,647.77,443.37,692.62,381.27,692.62Z" transform="translate(-141.52 -141.52)"/><path class="cls-3" d="M704.29,573H556.52c-16.1,0-25.3-9.2-25.3-25.3V320c0-8,4.6-12.65,12.65-12.65h36.22c8,0,12.65,4.6,12.65,12.65V515c0,4,2.3,6.32,6.33,6.32H704.29c8.05,0,12.65,4.6,12.65,12.65v26.45C716.94,568.42,712.34,573,704.29,573Z" transform="translate(-141.52 -141.52)"/></g></svg>