<?xml version="1.0" encoding="UTF-8"?>
<svg width="717px" height="717px" viewBox="0 0 717 717" version="1.1" xmlns="http://www.w3.org/2000/svg" xmlns:xlink="http://www.w3.org/1999/xlink">
    <!-- Generator: Sketch 64 (93537) - https://sketch.com -->
    <title>Big Sur Style Logo</title>
    <desc>Created with Sketch.</desc>
    <defs>
        <linearGradient x1="50%" y1="0%" x2="50%" y2="100%" id="linearGradient-1">
            <stop stop-color="#FD6159" offset="0%"></stop>
            <stop stop-color="#FD1E19" offset="100%"></stop>
        </linearGradient>
        <path d="M192.29139,-7.76880231e-15 L524.70861,7.76880231e-15 C591.572515,-4.51389787e-15 615.818983,6.96192084 640.263428,20.0349528 C664.707872,33.1079847 683.892015,52.2921278 696.965047,76.7365722 C710.038079,101.181017 717,125.427485 717,192.29139 L717,524.70861 C717,591.572515 710.038079,615.818983 696.965047,640.263428 C683.892015,664.707872 664.707872,683.892015 640.263428,696.965047 C615.818983,710.038079 591.572515,717 524.70861,717 L192.29139,717 C125.427485,717 101.181017,710.038079 76.7365722,696.965047 C52.2921278,683.892015 33.1079847,664.707872 20.0349528,640.263428 C6.96192084,615.818983 3.00926524e-15,591.572515 -5.17920154e-15,524.70861 L5.17920154e-15,192.29139 C-3.00926524e-15,125.427485 6.96192084,101.181017 20.0349528,76.7365722 C33.1079847,52.2921278 52.2921278,33.1079847 76.7365722,20.0349528 C101.181017,6.96192084 125.427485,4.51389787e-15 192.29139,-7.76880231e-15 Z" id="path-2"></path>
        <filter x="-2.0%" y="-2.0%" width="104.0%" height="104.0%" filterUnits="objectBoundingBox" id="filter-3">
            <feGaussianBlur stdDeviation="12.5" in="SourceAlpha" result="shadowBlurInner1"></feGaussianBlur>
            <feOffset dx="4" dy="4" in="shadowBlurInner1" result="shadowOffsetInner1"></feOffset>
            <feComposite in="shadowOffsetInner1" in2="SourceAlpha" operator="arithmetic" k2="-1" k3="1" result="shadowInnerInner1"></feComposite>
            <feColorMatrix values="0 0 0 0 0   0 0 0 0 0   0 0 0 0 0  0 0 0 0.5 0" type="matrix" in="shadowInnerInner1"></feColorMatrix>
        </filter>
        <path d="M98.7,386.1 C59.6,386.1 23.9,370.6 6.1,356.2 C0.3,351.6 -1.4,344.7 2.6,337.8 L15.8,316 C20.4,308.5 27.3,306.8 34.2,310.8 C56.6,324.6 76.7,331.5 98.6,331.5 C125.6,331.5 140.6,310.2 140.6,290.1 L140.6,58.9 C140.6,54.9 138.3,52.6 134.3,52.6 L86.6,52.6 C78.6,52.6 74,48 74,40 L74,13.5 C74,5.5 78.6,0.9 86.6,0.9 L177,0.9 C193.1,0.9 202.3,10.1 202.3,26.2 L202.3,290.1 C202.2,341.2 160.8,386.1 98.7,386.1 Z" id="path-4"></path>
        <filter x="-17.6%" y="-9.2%" width="139.1%" height="120.5%" filterUnits="objectBoundingBox" id="filter-5">
            <feOffset dx="4" dy="4" in="SourceAlpha" result="shadowOffsetOuter1"></feOffset>
            <feGaussianBlur stdDeviation="12.5" in="shadowOffsetOuter1" result="shadowBlurOuter1"></feGaussianBlur>
            <feColorMatrix values="0 0 0 0 0   0 0 0 0 0   0 0 0 0 0  0 0 0 0.5 0" type="matrix" in="shadowBlurOuter1"></feColorMatrix>
        </filter>
        <path d="M421.8,266.5 L274,266.5 C257.9,266.5 248.7,257.3 248.7,241.2 L248.7,13.5 C248.7,5.5 253.3,0.9 261.4,0.9 L297.6,0.9 C305.6,0.9 310.3,5.5 310.3,13.5 L310.3,208.5 C310.3,212.5 312.6,214.8 316.6,214.8 L421.8,214.8 C429.8,214.8 434.5,219.4 434.5,227.5 L434.5,254 C434.4,261.9 429.8,266.5 421.8,266.5 Z" id="path-6"></path>
        <filter x="-19.1%" y="-13.4%" width="142.5%" height="129.7%" filterUnits="objectBoundingBox" id="filter-7">
            <feOffset dx="4" dy="4" in="SourceAlpha" result="shadowOffsetOuter1"></feOffset>
            <feGaussianBlur stdDeviation="12.5" in="shadowOffsetOuter1" result="shadowBlurOuter1"></feGaussianBlur>
            <feColorMatrix values="0 0 0 0 0   0 0 0 0 0   0 0 0 0 0  0 0 0 0.5 0" type="matrix" in="shadowBlurOuter1"></feColorMatrix>
        </filter>
    </defs>
    <g id="Page-1" stroke="none" stroke-width="1" fill="none" fill-rule="evenodd">
        <g id="Artboard" transform="translate(-855.000000, -1564.000000)">
            <g id="Big-Sur-Style-Logo" transform="translate(855.000000, 1564.000000)">
                <g id="Rectangle">
                    <use fill="url(#linearGradient-1)" fill-rule="evenodd" xlink:href="#path-2"></use>
                    <use fill="black" fill-opacity="1" filter="url(#filter-3)" xlink:href="#path-2"></use>
                </g>
                <g id="Short_J" transform="translate(141.000000, 165.000000)" fill-rule="nonzero">
                    <g id="Path">
                        <use fill="black" fill-opacity="1" filter="url(#filter-5)" xlink:href="#path-4"></use>
                        <use fill="#FFFFFF" xlink:href="#path-4"></use>
                    </g>
                    <g id="Path">
                        <use fill="black" fill-opacity="1" filter="url(#filter-7)" xlink:href="#path-6"></use>
                        <use fill="#161A1B" xlink:href="#path-6"></use>
                    </g>
                </g>
            </g>
        </g>
    </g>
</svg>