<svg width="25" height="25" viewBox="0 0 25 25" fill="none" xmlns="http://www.w3.org/2000/svg">
<path fill-rule="evenodd" clip-rule="evenodd" d="M13.1001 0.181461L24.5259 7.79846V7.79895C24.8204 8.00122 24.9975 8.3347 25 8.69199V16.309C24.9976 16.6661 24.8207 16.9994 24.5264 17.2015L13.1006 24.8185C12.707 25.0627 12.291 25.0583 11.9004 24.8185L0.474609 17.2015C0.179768 16.9997 0.00246843 16.6663 0 16.309V8.69199C0.00237238 8.33453 0.179439 8.00083 0.474121 7.79846L11.8999 0.181461C12.2935 -0.0626741 12.7095 -0.0582797 13.1001 0.181461ZM21.9868 8.692L13.5742 3.08326V8.09143L18.2339 11.2032L21.9868 8.692ZM11.4258 3.08326V8.09143L6.76611 11.2027L3.01318 8.692L11.4258 3.08326ZM4.84082 12.5004L2.14844 10.7002V14.2997L4.84082 12.5004ZM11.4258 21.9168L3.01318 16.309L6.76611 13.7979L11.4258 16.9081V21.9168ZM8.70557 12.5004L12.5 15.0394L16.2944 12.5004L12.5 9.96143L8.70557 12.5004ZM13.5742 21.9173V16.9081L18.2339 13.7974L21.9868 16.309L13.5742 21.9173ZM20.1592 12.5004L22.8516 14.3002V14.2997V10.7002L20.1592 12.5004Z" fill="#B5C9C4"/>
</svg>
