<svg id="Layer_1" data-name="Layer 1" xmlns="http://www.w3.org/2000/svg" viewBox="0 0 496 496"><defs><style>.cls-1{fill:#fff;}</style></defs><title>copyright-regular</title><path class="cls-1" d="M256,8C119,8,8,119,8,256S119,504,256,504,504,393,504,256,393,8,256,8Zm0,448A200,200,0,1,1,456,256,199.89,199.89,0,0,1,256,456ZM363.35,354.94c-9.61,9.71-45.53,41.39-104.06,41.39-82.43,0-140.49-61.42-140.49-141.57,0-79.15,60.28-139.4,139.76-139.4,55.54,0,88.74,26.62,97.6,34.78a12,12,0,0,1,1.93,15.33l-18.15,28.11a12,12,0,0,1-17.5,2.92c-8.6-6.78-31.81-22.54-61.71-22.54-48.3,0-77.91,35.33-77.91,80.08,0,41.59,26.88,83.7,78.27,83.7,32.66,0,56.85-19,65.73-27.23a12,12,0,0,1,17.82,1.74l19.86,27.17a12,12,0,0,1-1.15,15.52Z" transform="translate(-8 -8)"/></svg>