<svg width="25" height="25" viewBox="0 0 25 25" fill="none" xmlns="http://www.w3.org/2000/svg">
<path fill-rule="evenodd" clip-rule="evenodd" d="M0 12.6135C0 5.44346 5.34778 0 12.3387 0C19.3296 0 25 5.44346 25 12.6135C25 18.3465 21.5827 23.2523 16.5423 24.9686C15.9022 25.0875 15.6704 24.6791 15.6704 24.3431C15.6704 24.2031 15.672 23.8742 15.6742 23.4337V23.4336V23.4336V23.4335V23.4334L15.6742 23.4328C15.6787 22.5395 15.6855 21.1878 15.6855 20.0214C15.6855 18.8066 15.2923 18.0312 14.8286 17.6228C17.6462 17.2971 20.6149 16.899 20.6149 11.9105C20.6149 10.494 20.121 9.78066 19.3145 8.86566C19.4456 8.52965 19.874 7.14939 19.1835 5.35558C18.13 5.0144 15.7056 6.75134 15.7056 6.75134C13.6341 6.16547 11.4466 6.16547 9.375 6.75134C9.375 6.75134 6.9506 5.01957 5.89718 5.35558C5.20665 7.14422 5.63508 8.52965 5.76613 8.86566C4.95968 9.77549 4.57661 10.4889 4.57661 11.9105C4.57661 16.8835 7.41935 17.3023 10.2369 17.6228C9.87399 17.964 9.54637 18.5378 9.43044 19.3649C8.70968 19.7061 6.85988 20.2799 5.75605 18.2845C5.06552 17.0541 3.81048 16.9507 3.81048 16.9507C2.5756 16.9352 3.72984 17.7468 3.72984 17.7468C4.55645 18.1345 5.13105 19.6389 5.13105 19.6389C5.87198 21.9548 9.4002 21.1794 9.4002 21.1794C9.4002 21.8828 9.40655 22.8726 9.41102 23.5696C9.41345 23.9483 9.41532 24.2406 9.41532 24.3534C9.41532 24.6894 9.18851 25.0978 8.54335 24.9789C3.51815 23.2523 0 18.3465 0 12.6135ZM7.01109 20.1508C6.85988 20.1198 6.75907 20.0009 6.79435 19.8975C6.82963 19.7941 6.9758 19.7424 7.10685 19.7786C7.25806 19.8251 7.35383 19.944 7.32359 20.0474C7.29334 20.1508 7.14213 20.2025 7.01109 20.1508ZM8.09979 20.316C8.24596 20.316 8.36189 20.2333 8.36189 20.1299C8.36189 20.011 8.23084 19.9283 8.07963 19.9438C7.93346 19.9438 7.81754 20.0265 7.81754 20.1299C7.81754 20.2488 7.93346 20.3315 8.09979 20.316ZM9.02217 19.8095C8.876 19.8457 8.7752 19.9439 8.79032 20.0628C8.80544 20.1662 8.93649 20.2334 9.0877 20.1972C9.23891 20.161 9.33467 20.0628 9.31955 19.9594C9.30443 19.856 9.16834 19.794 9.02217 19.8095ZM4.8992 17.8295C4.83367 17.8812 4.84879 18.0001 4.93448 18.0983C5.01513 18.181 5.13105 18.2172 5.19658 18.15C5.2621 18.0983 5.24698 17.9794 5.16129 17.8812C5.08065 17.7985 4.96472 17.7623 4.8992 17.8295ZM4.47077 17.6126C4.36996 17.5609 4.31956 17.4782 4.35484 17.411C4.39012 17.3593 4.47077 17.3438 4.57157 17.3748C4.67238 17.4265 4.72278 17.504 4.6875 17.5764C4.65222 17.6488 4.55141 17.6643 4.47077 17.6126ZM5.98789 19.2513C5.90725 19.3185 5.93749 19.4736 6.05342 19.5718C6.16935 19.6907 6.31551 19.7062 6.38104 19.6235C6.44656 19.5563 6.41632 19.4012 6.31551 19.303C6.20463 19.1841 6.05342 19.1686 5.98789 19.2513ZM5.41331 18.7962C5.33267 18.6773 5.33267 18.5429 5.41331 18.4912C5.49396 18.424 5.62501 18.4757 5.69557 18.5946C5.77622 18.7135 5.77622 18.8479 5.69557 18.9151C5.63005 18.9668 5.49396 18.9151 5.41331 18.7962Z" fill="#B5C9C4"/>
</svg>
