<svg width="24" height="25" viewBox="0 0 24 25" fill="none" xmlns="http://www.w3.org/2000/svg">
<path fill-rule="evenodd" clip-rule="evenodd" d="M23.9157 7.09508C23.8247 5.16866 23.3856 3.46224 21.9775 2.05633C20.5747 0.650417 18.8721 0.210398 16.9499 0.113809C14.9689 0.00112114 9.03112 0.00112114 7.05008 0.113809C5.1333 0.205032 3.43068 0.645051 2.02253 2.05096C0.614389 3.45688 0.180703 5.16329 0.0843279 7.08971C-0.0281093 9.07516 -0.0281093 15.0261 0.0843279 17.0116C0.175349 18.938 0.614389 20.6444 2.02253 22.0503C3.43068 23.4563 5.12794 23.8963 7.05008 23.9929C9.03112 24.1056 14.9689 24.1056 16.9499 23.9929C18.8721 23.9016 20.5747 23.4616 21.9775 22.0503C23.3803 20.6444 23.8193 18.938 23.9157 17.0116C24.0281 15.0261 24.0281 9.08053 23.9157 7.09508ZM18.4062 7.07348C19.1987 7.07348 19.8412 6.43492 19.8412 5.63537C19.8412 4.84119 19.1987 4.19726 18.4062 4.19726C17.6138 4.19726 16.9713 4.84119 16.9713 5.63537C16.9713 6.42955 17.6085 7.07348 18.4062 7.07348ZM12.0027 5.88769C8.59744 5.88769 5.85075 8.64049 5.85075 12.0533C5.85075 15.4661 8.59744 18.2189 12.0027 18.2189C15.4079 18.2189 18.1546 15.4661 18.1546 12.0533C18.1546 8.64049 15.4079 5.88769 12.0027 5.88769ZM12.0027 16.0618C9.80212 16.0618 8.00313 14.2642 8.00313 12.0534C8.00313 9.84256 9.79677 8.04492 12.0027 8.04492C14.2086 8.04492 16.0022 9.84256 16.0022 12.0534C16.0022 14.2642 14.2032 16.0618 12.0027 16.0618ZM19.0755 21.4281C20.1303 21.0042 20.9388 20.1939 21.3564 19.1422C21.8937 17.789 21.8638 14.8291 21.8444 12.9104C21.8412 12.5921 21.8383 12.3025 21.8383 12.0536C21.8383 11.8046 21.8412 11.5151 21.8444 11.1969C21.8638 9.27918 21.8937 6.32271 21.3564 4.96498C20.9334 3.90786 20.1249 3.09759 19.0755 2.67903C17.7211 2.14345 14.7535 2.17198 12.8396 2.19038C12.5291 2.19337 12.2463 2.19608 12.0027 2.19608C11.7543 2.19608 11.4654 2.19315 11.1479 2.18993C9.23446 2.1705 6.28455 2.14054 4.92984 2.67903C3.87507 3.10295 3.06659 3.91323 2.64897 4.96498C2.11458 6.3224 2.14305 9.29667 2.16141 11.2148C2.16438 11.526 2.1671 11.8094 2.1671 12.0536C2.1671 12.3025 2.16417 12.5921 2.16095 12.9103C2.14157 14.828 2.11168 17.7844 2.64897 19.1422C3.07195 20.1993 3.88043 21.0096 4.92984 21.4281C6.28424 21.9637 9.25189 21.9352 11.1658 21.9168C11.4763 21.9138 11.759 21.9111 12.0027 21.9111C12.2511 21.9111 12.54 21.914 12.8575 21.9172C14.7709 21.9367 17.7208 21.9666 19.0755 21.4281Z" fill="#B5C9C4"/>
</svg>
