<svg width="26" height="26" viewBox="0 0 26 26" fill="none" xmlns="http://www.w3.org/2000/svg">
<path fill-rule="evenodd" clip-rule="evenodd" d="M3.00551 6.0403C1.34633 6.0403 0 4.66573 0 3.00618C0 1.34591 1.34561 0 3.00551 0C4.66541 0 6.01102 1.34591 6.01102 3.00618C6.01102 4.66573 4.66469 6.0403 3.00551 6.0403ZM5.60321 25.0329H0.413399V8.32007H5.60321V25.0329ZM19.8487 25.033H25.0273H25.0329V15.8524C25.0329 11.3599 24.0664 7.90112 18.8152 7.90112C16.2901 7.90112 14.5974 9.28687 13.9047 10.6H13.8321V8.3202H8.85454V25.033H14.0388V16.7576C14.0388 14.5784 14.4522 12.4719 17.1504 12.4719C19.8096 12.4719 19.8487 14.9584 19.8487 16.8973V25.033Z" fill="#B5C9C4"/>
</svg>
