<svg id="Layer_1" data-name="Layer 1" xmlns="http://www.w3.org/2000/svg" viewBox="0 0 448.1 448"><defs><style>.cls-1{fill:#fff;}</style></defs><title>linkedin</title><path class="cls-1" d="M100.3,480H7.4V180.9h92.9ZM53.8,140.1C24.1,140.1,0,115.5,0,85.8a53.8,53.8,0,0,1,107.6,0C107.6,115.5,83.5,140.1,53.8,140.1ZM448,480H355.3V334.4c0-34.7-.7-79.2-48.3-79.2-48.3,0-55.7,37.7-55.7,76.7V480H158.5V180.9h89.1v40.8h1.3c12.4-23.5,42.7-48.3,87.9-48.3,94,0,111.3,61.9,111.3,142.3V480Z" transform="translate(0 -32)"/></svg>