<svg width="12" height="21" viewBox="0 0 12 21" fill="none" xmlns="http://www.w3.org/2000/svg">
<path fill-rule="evenodd" clip-rule="evenodd" d="M6 0C2.68625 0 0 2.59036 0 5.78583C0 8.98129 2.68625 11.5717 6 11.5717C9.31375 11.5717 12 8.98129 12 5.78583C12 2.59036 9.31375 0 6 0ZM4.66667 12.7346V19.0303L5.58417 20.357C5.78209 20.6431 6.21834 20.6431 6.41625 20.357L7.33334 19.0303V12.7346C6.90042 12.8118 6.45584 12.8576 6.00001 12.8576C5.54417 12.8576 5.09959 12.8118 4.66667 12.7346ZM3.16667 5.78586C3.16667 4.27913 4.43751 3.05366 6 3.05366C6.27584 3.05366 6.5 2.8375 6.5 2.57151C6.5 2.30552 6.27584 2.08936 6 2.08936C3.88667 2.08936 2.16667 3.74756 2.16667 5.78586C2.16667 6.05184 2.39084 6.26801 2.66667 6.26801C2.94251 6.26801 3.16667 6.05184 3.16667 5.78586Z" fill="#B5C9C4"/>
</svg>
