<svg id="Layer_1" data-name="Layer 1" xmlns="http://www.w3.org/2000/svg" viewBox="0 0 512 384"><defs><style>.cls-1{fill:#414a4f;}</style></defs><title>maild</title><path class="cls-1" d="M464,0H48A48,48,0,0,0,0,48V336a48,48,0,0,0,48,48H464a48,48,0,0,0,48-48V48A48,48,0,0,0,464,0Zm0,48V88.8c-22.42,18.26-58.17,46.66-134.59,106.49C312.57,208.54,279.21,240.37,256,240c-23.21.37-56.58-31.46-73.41-44.71C106.18,135.46,70.43,107.07,48,88.8V48ZM48,336V150.4c22.91,18.25,55.41,43.86,104.94,82.64,21.85,17.21,60.13,55.19,103.06,55,42.72.23,80.51-37.2,103.05-55,49.53-38.78,82-64.4,105-82.65V336Z"/></svg>