<svg width="20" height="15" viewBox="0 0 20 15" fill="none" xmlns="http://www.w3.org/2000/svg">
<path fill-rule="evenodd" clip-rule="evenodd" d="M18.125 0H1.875C0.839453 0 0 0.839453 0 1.875V13.125C0 14.1605 0.839453 15 1.875 15H18.125C19.1605 15 20 14.1605 20 13.125V1.875C20 0.839453 19.1605 0 18.125 0ZM18.125 1.875V3.46895C17.2491 4.18219 15.8528 5.29125 12.8677 7.62871C12.7571 7.71568 12.6283 7.82316 12.4862 7.94172C11.783 8.52854 10.7543 9.3869 10 9.37484C9.24577 9.38703 8.21676 8.52836 7.51357 7.94157L7.51356 7.94157C7.37154 7.82305 7.2428 7.71563 7.1323 7.62871C4.14766 5.2916 2.75098 4.1823 1.875 3.46895V1.875H18.125ZM1.875 5.87476V13.1248H18.125V5.87479C17.2299 6.58776 15.9602 7.58847 14.0255 9.10343C13.8991 9.20294 13.7604 9.3183 13.6107 9.44287C12.7171 10.1861 11.4291 11.2575 10 11.2498C8.5647 11.2575 7.2625 10.1717 6.38169 9.43721C6.23345 9.3136 6.09714 9.19993 5.97414 9.10312C4.03941 7.58812 2.77008 6.58769 1.875 5.87476Z" fill="#B5C9C4"/>
</svg>
