<?xml version="1.0" encoding="utf-8"?>
<!-- Generator: Adobe Illustrator 23.0.1, SVG Export Plug-In . SVG Version: 6.00 Build 0)  -->
<svg version="1.1" id="Layer_1" xmlns="http://www.w3.org/2000/svg" xmlns:xlink="http://www.w3.org/1999/xlink" x="0px" y="0px"
	 viewBox="0 0 512 512" style="enable-background:new 0 0 512 512;" xml:space="preserve">
<style type="text/css">
	.st0{fill:#FFFFFF;}
</style>
<title>Responsive-Website-Design-Development-Computer</title>
<g id="Expand">
	<rect x="272" y="288" class="st0" width="16" height="16"/>
	<rect x="304" y="288" class="st0" width="80" height="16"/>
	<path class="st0" d="M280,368h48c4.4,0,8-3.6,8-8v-32c0-4.4-3.6-8-8-8h-48c-4.4,0-8,3.6-8,8v32C272,364.4,275.6,368,280,368z
		 M288,336h32v16h-32V336z"/>
	<path class="st0" d="M280,432h48c4.4,0,8-3.6,8-8v-32c0-4.4-3.6-8-8-8h-48c-4.4,0-8,3.6-8,8v32C272,428.4,275.6,432,280,432z
		 M288,400h32v16h-32V400z"/>
	<rect x="416" y="352" class="st0" width="16" height="16"/>
	<rect x="384" y="352" class="st0" width="16" height="16"/>
	<path class="st0" d="M392,432h32c4.4,0,8-3.6,8-8v-32c0-4.4-3.6-8-8-8h-32c-4.4,0-8,3.6-8,8v32C384,428.4,387.6,432,392,432z
		 M400,400h16v16h-16V400z"/>
	<rect x="208" y="344" class="st0" width="16" height="16"/>
	<path class="st0" d="M80,392h76.9l-18.7,56H88c-13.3,0-24,10.7-24,24s10.7,24,24,24h352c13.3,0,24-10.7,24-24V344
		c0-13.3-10.7-24-24-24h-24v-40c0-13.3-10.7-24-24-24h-8V136c0-17.7-14.3-32-32-32H80c-17.7,0-32,14.3-32,32v224
		C48,377.7,62.3,392,80,392z M80,472c0-4.4,3.6-8,8-8h136v-16h-68.9l18.7-56H240v80c0,2.7,0.5,5.4,1.5,8H88
		C83.6,480,80,476.4,80,472z M440,480h-64c-4.4,0-8-3.6-8-8v-8h80v8C448,476.4,444.4,480,440,480z M448,344v104h-80V344
		c0-4.4,3.6-8,8-8h64C444.4,336,448,339.6,448,344z M400,280v40h-24c-13.3,0-24,10.7-24,24v128c0,2.7,0.5,5.4,1.5,8H264
		c-4.4,0-8-3.6-8-8v-8h80v-16h-80V280c0-4.4,3.6-8,8-8h128C396.4,272,400,275.6,400,280z M80,120h272c8.8,0,16,7.2,16,16v120H264
		c-13.3,0-24,10.7-24,24v96H80c-8.8,0-16-7.2-16-16v-32h160v-16H64V136C64,127.2,71.2,120,80,120z"/>
	<rect x="80" y="136" class="st0" width="16" height="16"/>
	<rect x="112" y="136" class="st0" width="240" height="16"/>
	<path class="st0" d="M88,224h64c4.4,0,8-3.6,8-8v-40c0-4.4-3.6-8-8-8H88c-4.4,0-8,3.6-8,8v40C80,220.4,83.6,224,88,224z M96,184h48
		v24H96V184z"/>
	<path class="st0" d="M88,296h64c4.4,0,8-3.6,8-8v-40c0-4.4-3.6-8-8-8H88c-4.4,0-8,3.6-8,8v40C80,292.4,83.6,296,88,296z M96,256h48
		v24H96V256z"/>
	<path class="st0" d="M248,168h-64c-4.4,0-8,3.6-8,8v40c0,4.4,3.6,8,8,8h64c4.4,0,8-3.6,8-8v-40C256,171.6,252.4,168,248,168z
		 M240,208h-48v-24h48V208z"/>
	<path class="st0" d="M344,168h-64c-4.4,0-8,3.6-8,8v40c0,4.4,3.6,8,8,8h64c4.4,0,8-3.6,8-8v-40C352,171.6,348.4,168,344,168z
		 M336,208h-48v-24h48V208z"/>
	<path class="st0" d="M176,248v40c0,4.4,3.6,8,8,8h40v-16h-32v-24h48v-16h-56C179.6,240,176,243.6,176,248z"/>
	<rect x="480" y="352" class="st0" width="16" height="112"/>
	<path class="st0" d="M400,128v56h16v-56c0-30.9-25.1-56-56-56H224v16h136C382.1,88,400,105.9,400,128z"/>
	<rect x="192" y="72" class="st0" width="16" height="16"/>
	<rect x="16" y="168" class="st0" width="16" height="176"/>
</g>
</svg>
