<svg id="Layer_1" data-name="Layer 1" xmlns="http://www.w3.org/2000/svg" viewBox="0 0 512 415.85"><defs><style>.cls-1{fill:#414a4f;}</style></defs><title>twitterd</title><path class="cls-1" d="M459.37,103.64c.33,4.54.33,9.09.33,13.64,0,138.72-105.59,298.56-298.56,298.56A296.48,296.48,0,0,1,0,368.73,216.68,216.68,0,0,0,25.34,370,210.11,210.11,0,0,0,155.61,325.2,105.12,105.12,0,0,1,57.5,252.43a132.9,132.9,0,0,0,19.82,1.62,111.35,111.35,0,0,0,27.61-3.57,105,105,0,0,1-84.14-103v-1.29A105.7,105.7,0,0,0,68.22,159.5,105.07,105.07,0,0,1,35.74,19.17,298.26,298.26,0,0,0,252.1,129a118.76,118.76,0,0,1-2.6-24,105,105,0,0,1,181.6-71.8A206.67,206.67,0,0,0,497.7,7.84a104.62,104.62,0,0,1-46.13,57.83A210.61,210.61,0,0,0,512,49.38,225.66,225.66,0,0,1,459.37,103.64Z" transform="translate(0 0)"/></svg>