<svg width="30" height="24" viewBox="0 0 30 24" fill="none" xmlns="http://www.w3.org/2000/svg">
<path d="M26.9162 5.98189C26.9355 6.2439 26.9355 6.5065 26.9355 6.76909C26.9355 14.7751 20.7486 23.9999 9.4418 23.9999C6.09433 24.0085 2.81562 23.0644 0 21.2811C0.493 21.3347 0.988778 21.3598 1.48477 21.3561C4.25198 21.363 6.94088 20.4515 9.11777 18.7688C6.48765 18.7216 4.17824 17.0344 3.36914 14.569C3.75334 14.6287 4.14153 14.66 4.53047 14.6625C5.07636 14.6609 5.61989 14.5917 6.14824 14.4565C3.27788 13.8834 1.21557 11.3968 1.21816 8.51203V8.43758C2.07015 8.90572 3.02239 9.16892 3.99727 9.20574C1.28844 7.42651 0.454461 3.87744 2.09414 1.10685C5.21732 4.89326 9.8249 7.19662 14.7715 7.44434C14.6731 6.98893 14.622 6.52483 14.6191 6.05922C14.6195 3.5728 16.1619 1.33891 18.5094 0.424702C20.8569 -0.489504 23.5332 0.101513 25.2598 1.91542C26.6367 1.65425 27.9572 1.15941 29.1621 0.452964C28.7039 1.8526 27.7428 3.03938 26.4592 3.79052C27.6804 3.65258 28.8739 3.3357 30 2.85037C29.1582 4.0576 28.1156 5.11629 26.9162 5.98189Z" fill="#B5C9C4"/>
</svg>
